<svg width="380" height="80" viewBox="0 0 380 80" fill="none" xmlns="http://www.w3.org/2000/svg">
<path d="M53.8418 79.1072H106.337L80.0889 39.6387L53.8418 79.1072Z" fill="#002169"/>
<path d="M53.8903 0H0L53.8419 79.1066L80.089 39.638L53.8903 0Z" fill="#E1251B"/>
<path d="M106.506 0L80.0889 39.638L106.337 79.1066L160.396 0H106.506Z" fill="#0082CA"/>
<path d="M195.597 44.9316L186.844 67.2494L177.974 44.9316H167.271L181.56 78.9977H191.675L205.831 44.9316H195.597Z" fill="#002169"/>
<path d="M239.663 44.6816H230.203V79.0511H239.663V44.6816Z" fill="#002169"/>
<path d="M309.534 44.6816H300.075V79.0511H309.534V44.6816Z" fill="#002169"/>
<path d="M261.105 52.2223L256.056 69.9788L250.922 52.2223L240.941 52.2051L249.896 79.0514H261.408L270.312 52.2223H261.105Z" fill="#002169"/>
<path d="M321.998 52.2227H312.522V79.0517H321.998V52.2227Z" fill="#002169"/>
<path d="M321.998 44.6816H312.522V49.7307H321.998V44.6816Z" fill="#002169"/>
<path d="M343.475 52.2227H325.011V79.0517H334.454V57.7767H341.556V79.0517H351.032V59.0555C351.032 53.6868 347.632 52.2227 343.475 52.2227Z" fill="#002169"/>
<path d="M290.188 79.0517C294.8 79.0517 297.089 76.8292 297.089 72.723C297.089 69.07 297.106 58.8203 297.106 58.8203C297.106 53.3335 293.471 52.2227 290.087 52.2227H277.75C274.367 52.2227 270.731 53.3335 270.731 58.8203C270.731 58.8203 270.749 69.07 270.749 72.723C270.749 76.8292 273.038 79.0517 277.666 79.0517H290.188ZM280.292 73.4805V57.8947L287.562 57.7431V73.4805H280.292Z" fill="#002169"/>
<path d="M227.106 59.0727C227.106 53.6868 223.689 52.2227 219.044 52.2227H205.528L203.425 57.2717C206.017 57.2717 217.681 57.2717 217.681 57.2717V61.0927H208.121C204.232 61.0927 200.597 62.3716 200.597 67.9428C200.597 71.1908 200.597 73.1607 200.597 73.1607C200.597 77.1662 202.987 79.0517 207.902 79.0517C211.655 79.0517 227.106 79.0345 227.106 79.0345V59.0727ZM217.681 73.4805H209.652V66.1417H217.681V73.4805Z" fill="#002169"/>
<path d="M353.828 59.4261C353.828 63.0282 353.828 72.1844 353.828 72.1844C353.828 74.6412 354.686 76.1062 355.259 76.762C356.488 78.1762 358.44 79.0517 361.941 79.0517H377.021L378.368 73.9854C375.759 73.9854 363.253 73.9854 363.253 73.9854V69.6594H373.285C377.442 69.6594 380.001 68.0945 380.001 63.4324C380.001 60.1836 380.001 58.4333 380.001 58.4333C380.001 53.5687 376.786 52.2227 372.561 52.2227C370.087 52.2227 366.165 52.2227 361.873 52.2227C357.144 52.2227 353.828 54.259 353.828 59.4261ZM363.253 57.7767H371.282V64.6104H363.253V57.7767Z" fill="#002169"/>
</svg>
