<svg width="35" height="35" viewBox="0 0 35 35" fill="none" xmlns="http://www.w3.org/2000/svg">
<path d="M20.9714 0C13.2214 0 6.94286 6.27857 6.94286 14.0286C6.94286 17.3786 8.11429 20.45 10.0714 22.8643L0.428571 32.5071C-0.142857 33.0786 -0.142857 34 0.428571 34.5714C1 35.1429 1.92143 35.1429 2.49286 34.5714L12.1357 24.9286C14.55 26.8857 17.6214 28.0571 20.9714 28.0571C28.7214 28.0571 35 21.7786 35 14.0286C35 6.27857 28.7143 0 20.9714 0ZM20.9714 25.1429C14.8357 25.1429 9.85714 20.1643 9.85714 14.0286C9.85714 7.89286 14.8357 2.91429 20.9714 2.91429C27.1071 2.91429 32.0857 7.89286 32.0857 14.0286C32.0857 20.1643 27.1071 25.1429 20.9714 25.1429Z" fill="#B2C0D5"/>
</svg>
